<svg width="14" height="14" viewBox="0 0 14 14" fill="none" xmlns="http://www.w3.org/2000/svg">
<path d="M4.08332 1.75004V0.583374H5.24999V1.75004H8.74999V0.583374H9.91666V1.75004H12.25C12.5722 1.75004 12.8333 2.01121 12.8333 2.33337V5.25004H11.6667V2.91671H9.91666V4.08337H8.74999V2.91671H5.24999V4.08337H4.08332V2.91671H2.33332V11.0834H5.83332V12.25H1.74999C1.42783 12.25 1.16666 11.9889 1.16666 11.6667V2.33337C1.16666 2.01121 1.42783 1.75004 1.74999 1.75004H4.08332ZM9.91666 7.00004C8.62801 7.00004 7.58332 8.04473 7.58332 9.33337C7.58332 10.622 8.62801 11.6667 9.91666 11.6667C11.2053 11.6667 12.25 10.622 12.25 9.33337C12.25 8.04473 11.2053 7.00004 9.91666 7.00004ZM6.41666 9.33337C6.41666 7.40038 7.98366 5.83337 9.91666 5.83337C11.8496 5.83337 13.4167 7.40038 13.4167 9.33337C13.4167 11.2664 11.8496 12.8334 9.91666 12.8334C7.98366 12.8334 6.41666 11.2664 6.41666 9.33337ZM9.33332 7.58337V9.57499L10.6708 10.9125L11.4958 10.0876L10.5 9.09176V7.58337H9.33332Z" fill="#1E9C5D"/>
</svg>
