<svg width="14" height="14" viewBox="0 0 14 14" fill="none" xmlns="http://www.w3.org/2000/svg">
<path d="M6.41668 10.4639C4.11466 10.1768 2.33334 8.21306 2.33334 5.83329C2.33334 3.25596 4.42268 1.16663 7.00001 1.16663C9.57735 1.16663 11.6667 3.25596 11.6667 5.83329C11.6667 8.21306 9.88535 10.1768 7.58334 10.4639V11.6734C9.88535 11.7272 11.6667 12.0954 11.6667 12.5416C11.6667 13.0249 9.57735 13.4166 7.00001 13.4166C4.42268 13.4166 2.33334 13.0249 2.33334 12.5416C2.33334 12.0954 4.11466 11.7272 6.41668 11.6734V10.4639ZM7.00001 9.33329C8.933 9.33329 10.5 7.76628 10.5 5.83329C10.5 3.9003 8.933 2.33329 7.00001 2.33329C5.06701 2.33329 3.50001 3.9003 3.50001 5.83329C3.50001 7.76628 5.06701 9.33329 7.00001 9.33329ZM7.00001 6.99996C6.35566 6.99996 5.83334 6.47764 5.83334 5.83329C5.83334 5.18896 6.35566 4.66663 7.00001 4.66663C7.64436 4.66663 8.16668 5.18896 8.16668 5.83329C8.16668 6.47764 7.64436 6.99996 7.00001 6.99996Z" fill="#1E9C5D"/>
</svg>
