<svg width="24" height="25" viewBox="0 0 24 25" fill="none" xmlns="http://www.w3.org/2000/svg">
<g id="Logo Instagram" clip-path="url(#clip0_816_292)">
<path id="Icon" d="M12 2.663C15.204 2.663 15.584 2.675 16.85 2.733C20.102 2.881 21.621 4.424 21.769 7.652C21.827 8.917 21.838 9.297 21.838 12.501C21.838 15.706 21.826 16.085 21.769 17.35C21.62 20.575 20.105 22.121 16.85 22.269C15.584 22.327 15.206 22.339 12 22.339C8.79601 22.339 8.41601 22.327 7.15101 22.269C3.89101 22.12 2.38001 20.57 2.23201 17.349C2.17401 16.084 2.16201 15.705 2.16201 12.5C2.16201 9.296 2.17501 8.917 2.23201 7.651C2.38101 4.424 3.89601 2.88 7.15101 2.732C8.41701 2.675 8.79601 2.663 12 2.663ZM12 0.5C8.74101 0.5 8.33301 0.514 7.05301 0.572C2.69501 0.772 0.273008 3.19 0.0730076 7.552C0.0140076 8.833 7.62939e-06 9.241 7.62939e-06 12.5C7.62939e-06 15.759 0.0140076 16.168 0.0720076 17.448C0.272008 21.806 2.69001 24.228 7.05201 24.428C8.33301 24.486 8.74101 24.5 12 24.5C15.259 24.5 15.668 24.486 16.948 24.428C21.302 24.228 23.73 21.81 23.927 17.448C23.986 16.168 24 15.759 24 12.5C24 9.241 23.986 8.833 23.928 7.553C23.732 3.199 21.311 0.773 16.949 0.573C15.668 0.514 15.259 0.5 12 0.5ZM12 6.338C8.59701 6.338 5.83801 9.097 5.83801 12.5C5.83801 15.903 8.59701 18.663 12 18.663C15.403 18.663 18.162 15.904 18.162 12.5C18.162 9.097 15.403 6.338 12 6.338ZM12 16.5C9.79101 16.5 8.00001 14.71 8.00001 12.5C8.00001 10.291 9.79101 8.5 12 8.5C14.209 8.5 16 10.291 16 12.5C16 14.71 14.209 16.5 12 16.5ZM18.406 4.655C17.61 4.655 16.965 5.3 16.965 6.095C16.965 6.89 17.61 7.535 18.406 7.535C19.201 7.535 19.845 6.89 19.845 6.095C19.845 5.3 19.201 4.655 18.406 4.655Z" fill="#EDEDED"/>
</g>
<defs>
<clipPath id="clip0_816_292">
<rect width="24" height="24" fill="white" transform="translate(7.62939e-06 0.5)"/>
</clipPath>
</defs>
</svg>
